<svg width="20" height="20" viewBox="0 0 20 20" fill="none" xmlns="http://www.w3.org/2000/svg">
<path d="M15.8333 3.33337H4.16667C3.50363 3.33337 2.86774 3.59677 2.3989 4.06561C1.93006 4.53445 1.66667 5.17033 1.66667 5.83337V14.1667C1.66667 14.8297 1.93006 15.4656 2.3989 15.9345C2.86774 16.4033 3.50363 16.6667 4.16667 16.6667H15.8333C16.4964 16.6667 17.1323 16.4033 17.6011 15.9345C18.0699 15.4656 18.3333 14.8297 18.3333 14.1667V5.83337C18.3333 5.17033 18.0699 4.53445 17.6011 4.06561C17.1323 3.59677 16.4964 3.33337 15.8333 3.33337ZM15.4917 5.00004L10.5917 9.90004C10.5142 9.97815 10.422 10.0401 10.3205 10.0824C10.2189 10.1248 10.11 10.1465 10 10.1465C9.88999 10.1465 9.78107 10.1248 9.67952 10.0824C9.57797 10.0401 9.4858 9.97815 9.40833 9.90004L4.50833 5.00004H15.4917ZM16.6667 14.1667C16.6667 14.3877 16.5789 14.5997 16.4226 14.756C16.2663 14.9122 16.0543 15 15.8333 15H4.16667C3.94565 15 3.73369 14.9122 3.57741 14.756C3.42113 14.5997 3.33333 14.3877 3.33333 14.1667V6.17504L8.23334 11.075C8.70209 11.5432 9.3375 11.8062 10 11.8062C10.6625 11.8062 11.2979 11.5432 11.7667 11.075L16.6667 6.17504V14.1667Z" fill="#9C9C9C"/>
</svg>
