<svg width="20" height="20" viewBox="0 0 20 20" fill="none" xmlns="http://www.w3.org/2000/svg">
<path d="M15.8333 2.5H4.16667C3.24619 2.5 2.5 3.24619 2.5 4.16667V15.8333C2.5 16.7538 3.24619 17.5 4.16667 17.5H15.8333C16.7538 17.5 17.5 16.7538 17.5 15.8333V4.16667C17.5 3.24619 16.7538 2.5 15.8333 2.5Z" stroke="#9C9C9C" stroke-width="1.8" stroke-linecap="round" stroke-linejoin="round"/>
<path d="M7.08334 8.33337C7.7737 8.33337 8.33334 7.77373 8.33334 7.08337C8.33334 6.39302 7.7737 5.83337 7.08334 5.83337C6.39299 5.83337 5.83334 6.39302 5.83334 7.08337C5.83334 7.77373 6.39299 8.33337 7.08334 8.33337Z" stroke="#9C9C9C" stroke-width="1.8" stroke-linecap="round" stroke-linejoin="round"/>
<path d="M17.5 12.5L13.3333 8.33337L4.16666 17.5" stroke="#9C9C9C" stroke-width="1.8" stroke-linecap="round" stroke-linejoin="round"/>
</svg>
