<svg width="16" height="16" viewBox="0 0 16 16" fill="none" xmlns="http://www.w3.org/2000/svg">
<path d="M14.75 0.5H5.25C5.05109 0.5 4.86032 0.579018 4.71967 0.71967C4.57902 0.860322 4.5 1.05109 4.5 1.25V10.75C4.5 10.9489 4.57902 11.1397 4.71967 11.2803C4.86032 11.421 5.05109 11.5 5.25 11.5H14.75C14.9489 11.5 15.1397 11.421 15.2803 11.2803C15.421 11.1397 15.5 10.9489 15.5 10.75V1.25C15.5 1.05109 15.421 0.860322 15.2803 0.71967C15.1397 0.579018 14.9489 0.5 14.75 0.5ZM14.5 10.5H5.5V1.5H14.5V10.5Z" fill="white"/>
<path d="M3.5 12.5V2.5H2.5V12.75C2.5 12.9489 2.57902 13.1397 2.71967 13.2803C2.86032 13.421 3.05109 13.5 3.25 13.5H13.5V12.5H3.5Z" fill="white"/>
<path d="M1.5 14.5V4.5H0.5V14.75C0.5 14.9489 0.579018 15.1397 0.71967 15.2803C0.860322 15.421 1.05109 15.5 1.25 15.5H11.5V14.5H1.5Z" fill="white"/>
</svg>
